HIERARCHY
ROOT Hips
{
	OFFSET 0.000000 0.000000 0.000000
	CHANNELS 6 Xposition Yposition Zposition Zrotation Yrotation Xrotation 
	JOINT LHipJoint
	{
		OFFSET 0.000000 0.000000 0.000000
		CHANNELS 3 Zrotation Yrotation Xrotation
		JOINT LeftUpLeg
		{
			OFFSET 1.363060 -1.794630 0.839290
			CHANNELS 3 Zrotation Yrotation Xrotation
			JOINT LeftLeg
			{
				OFFSET 2.448110 -6.726130 0.000000
				CHANNELS 3 Zrotation Yrotation Xrotation
				JOINT LeftFoot
				{
					OFFSET 2.562200 -7.039590 0.000000
					CHANNELS 3 Zrotation Yrotation Xrotation
					JOINT LeftToeBase
					{
						OFFSET 0.157640 -0.433110 2.322550
						CHANNELS 3 Zrotation Yrotation Xrotation
						End Site
						{
							OFFSET 0.000000 0.000000 0.000000
						}
					}
				}
			}
		}
	}
	JOINT RHipJoint
	{
		OFFSET 0.000000 0.000000 0.000000
		CHANNELS 3 Zrotation Yrotation Xrotation
		JOINT RightUpLeg
		{
			OFFSET -1.305520 -1.794630 0.839290
			CHANNELS 3 Zrotation Yrotation Xrotation
			JOINT RightLeg
			{
				OFFSET -2.542530 -6.985550 0.000000
				CHANNELS 3 Zrotation Yrotation Xrotation
				JOINT RightFoot
				{
					OFFSET -2.568260 -7.056230 0.000000
					CHANNELS 3 Zrotation Yrotation Xrotation
					JOINT RightToeBase
					{
						OFFSET -0.164730 -0.452590 2.363150
						CHANNELS 3 Zrotation Yrotation Xrotation
						End Site
						{
							OFFSET 0.000000 0.000000 0.000000
						}
					}
				}
			}
		}
	}
}
MOTION
Frames: 19
Frame Time: 0.008333
3.591129 16.682486 -0.906857 -128.653674 83.590469 -128.439384 -10.426363 1.247878 0.532532 -23.176163 15.232640 -30.121842 -2.609327 -0.309524 19.173101 3.566388 15.554706 -19.989788 -3.512000 0.000000 -2.938400 9.911982 -4.306744 -2.387207 -10.939772 -23.708903 7.972257 -0.092118 -2.253907 31.653765 -0.962738 13.459320 37.325221 9.657501 0.000000 -84.873199
3.826858 16.625484 -0.968751 -127.812666 83.509228 -127.945953 -10.459437 1.288819 0.425916 -22.915638 15.333150 -29.783901 -2.564961 -0.137054 21.081875 3.570998 15.540638 -20.730857 176.239900 0.000000 -0.837901 10.041646 -4.130348 -2.535263 -11.990431 -24.424458 7.210554 -0.199675 -2.292840 34.337170 -1.144757 12.811953 38.356706 9.451600 0.000001 -81.846800
4.059757 16.569285 -1.029728 -127.469546 83.447939 -127.910995 -10.471780 1.354425 0.304315 -22.767919 15.549874 -29.556235 -2.540751 0.044063 23.058559 3.551315 15.404165 -21.439901 176.028900 0.000000 -4.157499 10.174434 -3.936446 -2.668078 -12.954819 -25.047953 6.305476 -0.309214 -2.345221 37.049629 -1.321243 11.275321 38.692852 8.510000 -0.000001 -78.542999
4.289354 16.515486 -1.090382 -127.654278 83.396557 -128.348355 -10.467092 1.437132 0.180302 -22.707613 15.804793 -29.404198 -2.528946 0.226513 25.036454 3.516396 15.182746 -22.117479 175.852101 0.000000 -6.873700 10.305443 -3.732945 -2.779276 -13.765729 -25.518757 5.242386 -0.424218 -2.418086 39.763143 -1.488324 8.960857 38.256038 6.933401 0.000000 -75.155500
4.515301 16.465647 -1.151561 -128.342953 83.344579 -129.219151 -10.450559 1.528300 0.065902 -22.709725 16.022406 -29.293149 -2.522951 0.402882 26.954420 3.477889 14.921538 -22.786248 175.695500 -0.000000 -9.066200 10.429031 -3.529544 -2.861343 -14.356974 -25.777303 4.006051 -0.545111 -2.514948 42.444201 -1.641368 6.092687 37.019506 4.941800 0.000000 -71.739400
4.737267 16.421059 -1.213713 -129.534635 83.285634 -130.518936 -10.424754 1.621593 -0.032736 -22.759504 16.145758 -29.168396 -2.517797 0.566112 28.742020 3.445014 14.665113 -23.448565 175.549000 0.000000 -10.693100 10.544283 -3.333411 -2.910813 -14.699171 -25.782732 2.605830 -0.669553 -2.635270 45.045522 -1.776249 2.959718 35.027104 2.819500 0.000000 -68.372900
4.955093 16.382766 -1.277579 -131.139638 83.212484 -132.156611 -10.394699 1.710743 -0.111067 -22.839389 16.137467 -28.986718 -2.510805 0.710316 30.341685 3.426132 14.452236 -24.117742 175.398200 0.000000 -11.856300 10.647902 -3.151408 -2.922632 -14.770528 -25.501676 1.054815 -0.793176 -2.773808 47.516020 -1.891098 -0.167589 32.392537 0.827200 -0.000000 -65.110800
5.168797 16.351452 -1.343568 -133.062697 83.119065 -134.041281 -10.363500 1.791260 -0.169779 -22.935800 15.981116 -28.703469 -2.500623 0.830809 31.699279 3.425776 14.311984 -24.785254 175.235700 0.000000 -12.555800 10.739342 -2.986493 -2.896037 -14.581259 -24.923206 -0.618219 -0.910300 -2.922895 49.808757 -1.985730 -3.070949 29.265386 -0.842900 -0.000000 -61.876000
5.378495 16.327510 -1.412321 -135.133091 83.000990 -136.010552 -10.336071 1.859483 -0.210331 -23.030373 15.681154 -28.287590 -2.487836 0.924541 32.776308 3.446800 14.261993 -25.454004 175.052601 0.000000 -12.935100 10.815065 -2.839468 -2.828566 -14.148421 -24.045046 -2.376440 -1.015438 -3.071222 51.872701 -2.063787 -5.622559 25.843875 -2.099400 -0.000001 -58.792800
5.584488 16.310977 -1.484173 -137.207071 82.855875 -137.933944 -10.315114 1.913861 -0.236795 -23.108752 15.256552 -27.711562 -2.473313 0.989895 33.542517 3.488356 14.307614 -26.108195 174.848401 -0.000000 -13.054100 10.873263 -2.707675 -2.722154 -13.513247 -22.889747 -4.174181 -1.103677 -3.208600 53.669031 -2.127899 -7.754844 22.311184 -2.928200 0.000000 -55.894400
5.787187 16.301615 -1.559436 -139.156834 82.682125 -139.698291 -10.302597 1.954129 -0.253579 -23.158293 14.734999 -26.958409 -2.457979 1.026537 33.981138 3.547326 14.443065 -26.728595 174.626799 -0.000000 -12.988200 10.911912 -2.587118 -2.580959 -12.723830 -21.496605 -5.966128 -1.171176 -3.326729 55.167989 -2.179067 -9.449313 18.828352 -3.372300 -0.000000 -53.232801
5.987074 16.298957 -1.638353 -140.894244 82.478553 -141.229963 -10.299691 1.981267 -0.264512 -23.170163 14.147207 -26.021481 -2.442448 1.035257 34.088229 3.618667 14.652653 -27.292795 174.396400 -0.000000 -12.811999 10.929150 -2.473371 -2.410931 -11.828379 -19.917835 -7.713364 -1.215307 -3.420011 56.349322 -2.216404 -10.718666 15.526144 -3.506800 0.000000 -50.895400
6.184759 16.302450 -1.721095 -142.379148 82.243222 -142.500317 -10.306928 1.997394 -0.271545 -23.140195 13.521559 -24.906469 -2.426848 1.017816 33.872826 3.696060 14.913121 -27.776979 174.170000 -0.000000 -12.584901 10.923476 -2.362487 -2.218713 -10.868977 -18.213832 -9.389581 -1.234604 -3.485637 57.203720 -2.237726 -11.594915 12.495653 -3.417500 0.000000 -48.960100
6.380852 16.311496 -1.807701 -143.618340 81.972413 -143.522776 -10.324363 2.005339 -0.274775 -23.068592 12.880908 -23.630277 -2.410927 0.976755 33.355599 3.772772 15.196866 -28.159865 173.962700 0.000000 -12.358100 10.893985 -2.251211 -2.011217 -9.877997 -16.447685 -10.983309 -1.228503 -3.523230 57.732795 -2.240781 -12.121708 9.785152 -3.185100 -0.000000 -47.418300
6.575917 16.325511 -1.898202 -144.643315 81.660492 -144.332168 -10.352103 2.008152 -0.273332 -22.957391 12.244890 -22.218464 -2.394310 0.915156 32.566190 3.841441 15.471443 -28.422527 173.791900 0.000000 -12.157200 10.840432 -2.137204 -1.794883 -8.876939 -14.678728 -12.494540 -1.197297 -3.533953 57.945879 -2.225248 -12.354498 7.410649 -2.877800 0.000001 -46.229500
6.770521 16.343878 -1.992579 -145.505852 81.295366 -144.970889 -10.390606 2.009438 -0.258093 -22.810188 11.609632 -20.720862 -2.375629 0.836988 31.555464 3.897340 15.712958 -28.557307 173.670200 0.000000 -11.991400 10.762089 -2.019693 -1.569626 -7.865943 -12.951041 -13.946189 -1.142950 -3.518005 57.860655 -2.195633 -12.372408 5.371659 -2.553000 0.000000 -45.393899
6.965008 16.366234 -2.090512 -146.265518 80.867699 -145.496498 -10.440161 2.011848 -0.229116 -22.627803 10.992224 -19.169609 -2.355021 0.745829 30.364516 3.933543 15.887889 -28.556786 173.612400 0.000000 -11.845500 10.660417 -1.897403 -1.341174 -6.852738 -11.307560 -15.348075 -1.067112 -3.478340 57.496196 -2.157299 -12.247532 3.633111 -2.243700 -0.000000 -44.728600
7.159742 16.392172 -2.191613 -146.984627 80.362655 -145.960239 -10.501091 2.018151 -0.179540 -22.410553 10.387916 -17.612583 -2.331888 0.645694 29.049790 3.946357 15.975240 -28.425420 173.625400 0.000000 -11.691300 10.536464 -1.770506 -1.108766 -5.830180 -9.772382 -16.722848 -0.972952 -3.416366 56.874131 -2.120226 -12.069820 2.161869 -1.974300 -0.000000 -44.163500
7.354843 16.421317 -2.295272 -147.718553 79.766153 -146.410240 -10.573396 2.030424 -0.105747 -22.157094 9.794898 -16.087644 -2.306116 0.540461 27.664032 3.932816 15.958190 -28.171228 173.712100 -0.000000 -11.488700 10.392048 -1.639431 -0.872853 -4.793985 -8.361004 -18.084151 -0.863892 -3.334187 56.014045 -2.095583 -11.925491 0.918527 -1.756500 0.000001 -43.629799
